<?xml version="1.0" encoding="UTF-8" standalone="no"?>
<svg
   width="808"
   height="315"
   viewbox="0 0 808 315"
   fill="none"
   version="1.1"
   id="svg1141"
   sodipodi:docname="xtdb-full-logo.svg"
   inkscape:export-filename="xtdb-full-logo.png"
   inkscape:export-xdpi="300"
   inkscape:export-ydpi="300"
   inkscape:version="1.2 (dc2aedaf03, 2022-05-15)"
   xmlns:inkscape="http://www.inkscape.org/namespaces/inkscape"
   xmlns:sodipodi="http://sodipodi.sourceforge.net/DTD/sodipodi-0.dtd"
   xmlns="http://www.w3.org/2000/svg"
   xmlns:svg="http://www.w3.org/2000/svg">
  <sodipodi:namedview
     id="namedview1143"
     pagecolor="#505050"
     bordercolor="#ffffff"
     borderopacity="1"
     inkscape:showpageshadow="0"
     inkscape:pageopacity="0"
     inkscape:pagecheckerboard="1"
     inkscape:deskcolor="#505050"
     showgrid="false"
     inkscape:zoom="0.74920635"
     inkscape:cx="290.3072"
     inkscape:cy="158.16737"
     inkscape:window-width="1920"
     inkscape:window-height="1003"
     inkscape:window-x="0"
     inkscape:window-y="0"
     inkscape:window-maximized="1"
     inkscape:current-layer="svg1141" />
  <g
     clip-path="url(#a)"
     id="g859">
    <path
       d="M765.777 66.207h-523.05v182.207h523.05c23.02 0 41.69-18.53 41.69-41.398v-99.41c0-22.86-18.67-41.4-41.69-41.4Z"
       fill="#fff"
       id="path809" />
    <path
       d="m139.86 24.42 115.45 66.53v132.73l-115.45 66.53-115.45-66.53V90.95l115.45-66.53Zm-.01 129.35 106.38-61.11-106.35-61.47L33.5 92.3l106.35 61.47ZM143 281.1l106.34-61.09V97.74L143 158.83V281.1Zm-6.27 0V158.83L30.39 97.74v122.27l106.34 61.09ZM139.86 0c-4.21 0-8.42 1.09-12.19 3.26L12.22 69.8A24.412 24.412 0 0 0 0 90.95v132.73c0 8.73 4.66 16.79 12.22 21.15l115.45 66.53a24.429 24.429 0 0 0 24.38 0l115.45-66.53a24.412 24.412 0 0 0 12.22-21.15V90.95c0-8.73-4.66-16.79-12.22-21.15L152.05 3.27A24.337 24.337 0 0 0 139.86 0Z"
       fill="#fff"
       id="path811" />
    <path
       d="m407.787 115.061 14.82-22.64h104.01v22.64h-42.21v107.14h-28.26v-107.14h-48.36ZM296.197 92.42l43.84 65.031-45.29 64.75h32.25l28.98-45.01 27.35 45.01h31.24l-88.85-129.78h-29.52ZM618.277 101.121c-9.48-5.77-21.4-8.7-35.43-8.7h-47.57V222.2h47.57c12.94 0 24.33-2.7 33.86-8.04 9.56-5.36 17.05-13.01 22.28-22.74 5.21-9.7 7.86-21.24 7.86-34.28 0-11.84-2.39-22.79-7.11-32.53-4.75-9.81-11.97-17.71-21.46-23.49Zm.78 56.02c0 7.73-1.43 14.76-4.24 20.91-2.79 6.08-6.9 10.92-12.23 14.38-5.33 3.46-11.97 5.21-19.74 5.21h-19.95v-80.63h19.95c7.65 0 14.24 1.7 19.58 5.04 5.33 3.35 9.47 8.07 12.31 14.03 2.87 6.02 4.32 13.1 4.32 21.06ZM754.537 166.431c-3.72-4.93-8.63-8.61-14.62-10.98 4.69-2.7 8.4-6.44 11.07-11.16 3.21-5.68 4.84-11.75 4.84-18.06 0-5.55-1.22-10.96-3.62-16.08-2.42-5.15-5.94-9.42-10.47-12.72-4.59-3.33-10.08-5.01-16.32-5.01h-69.36V222.2h62.75c7.54 0 14.61-1.3 21-3.86 6.47-2.59 11.7-6.45 15.54-11.46 3.88-5.07 5.84-11.41 5.84-18.85-.01-8.49-2.24-15.77-6.65-21.6Zm-27.84-27.72c-1.23 2.14-2.88 3.82-4.91 4.99-2.02 1.17-4.3 1.76-6.76 1.76h-31.39v-29.01h32.46c2.32 0 4.43.58 6.27 1.74 1.85 1.17 3.36 2.84 4.48 4.97 1.13 2.16 1.71 4.75 1.71 7.71 0 3.06-.62 5.7-1.86 7.84Zm-43.05 29.2h36.39c2.58 0 4.79.65 6.76 1.98 1.98 1.34 3.59 3.2 4.78 5.52 1.2 2.34 1.8 5.03 1.8 7.99 0 2.7-.66 5.22-1.95 7.48-1.3 2.27-3.08 4.1-5.29 5.45-2.19 1.34-4.67 2.02-7.36 2.02h-35.14v-30.44h.01Z"
       fill="#333"
       id="path813" />
    <path
       d="m357.927 128.941 15.79 21.29 39.32-57.73h-31.52l-23.59 36.44Z"
       fill="#F7941E"
       id="path815" />
    <path
       d="m227.53 206.79 14.24 8.78 7.12 4.39.96.6V98.89c-3.67 7.68-7.54 15.24-11.5 22.75-4.29 8.14-8.66 16.24-13.14 24.27a786.739 786.739 0 0 1-13.86 23.86l-7.16 11.79-4.88 8.09 13.93 8.42 14.29 8.72ZM69.96 89.76l13.95-.27c9.3-.12 18.61-.08 27.91.13l13.95.33 13.95.29 55.81 1.02 27.91.62 13.95.31 6.56.17c-4.36-1.47-8.63-3.1-12.87-4.81-5.1-2.05-10.13-4.23-15.12-6.52-4.99-2.28-9.88-4.76-14.71-7.35l-7.26-3.87-7.3-3.8-.19-.1-.09-.07-11.87-8.76-11.83-8.82-11.79-8.87-5.89-4.44-4.04-3.07-1.12-.65L35.5 91.19c6.83-.44 13.67-.75 20.5-1 4.66-.2 9.31-.29 13.96-.43ZM166.37 239.35l13.45-24.09 13.49-23.99c-3.75-2.02-7.52-4-11.28-6-4.92-2.63-9.76-5.4-14.51-8.31-4.75-2.92-9.46-5.91-14.1-9.03-3.51-2.34-6.99-4.74-10.4-7.26v120.81l3.27-5.94 6.69-12.06 13.39-24.13Z"
       fill="#fff"
       id="path817" />
    <path
       opacity=".33"
       d="m166.37 239.35 13.45-24.09 13.49-23.99c-3.75-2.02-7.52-4-11.28-6-4.92-2.63-9.76-5.4-14.51-8.31-4.75-2.92-9.46-5.91-14.1-9.03-3.51-2.34-6.99-4.74-10.4-7.26v120.81l3.27-5.94 6.69-12.06 13.39-24.13Z"
       fill="url(#b)"
       id="path819" />
    <path
       d="M79.88 189.5c-8.97-15.55-17.82-31.16-26.46-46.9-8.05-14.62-15.97-29.31-23.56-44.2v122.54l.19.11c8.02-5.7 16.24-11.05 24.53-16.28 8.35-5.23 16.79-10.31 25.3-15.27ZM84.54 186.81c8.65-4.97 17.37-9.8 26.19-14.48 8.52-4.49 17.1-8.87 25.88-12.91L30.89 98.69c8.98 13.79 17.63 27.76 26.16 41.81 9.35 15.33 18.48 30.79 27.49 46.31Z"
       fill="#fff"
       id="path821" />
    <path
       opacity=".33"
       d="M84.54 186.81c8.65-4.97 17.37-9.8 26.19-14.48 8.52-4.49 17.1-8.87 25.88-12.91L30.89 98.69c8.98 13.79 17.63 27.76 26.16 41.81 9.35 15.33 18.48 30.79 27.49 46.31Z"
       fill="url(#c)"
       id="path823" />
    <path
       d="M82.57 194.15c-8.54 4.9-17.16 9.67-25.87 14.29-8.56 4.52-17.19 8.92-26.02 12.98l105.35 60.52c-8.99-13.8-17.66-27.79-26.2-41.85-9.27-15.21-18.33-30.54-27.26-45.94Z"
       fill="#fff"
       id="path825" />
    <path
       opacity=".33"
       d="M82.57 194.15c-8.54 4.9-17.16 9.67-25.87 14.29-8.56 4.52-17.19 8.92-26.02 12.98l105.35 60.52c-8.99-13.8-17.66-27.79-26.2-41.85-9.27-15.21-18.33-30.54-27.26-45.94Z"
       fill="url(#d)"
       id="path827" />
    <path
       d="M87.23 191.46c8.9 15.42 17.68 30.9 26.24 46.51 7.94 14.41 15.75 28.89 23.23 43.56V160.21c-7.8 5.53-15.8 10.72-23.86 15.8-8.44 5.3-16.99 10.44-25.61 15.45ZM246.42 93.17l-9.02.16-13.95.21-27.91.41-55.82.6-13.95.18-13.95.23c-9.3.14-18.61.11-27.91-.08l-13.95-.37c-4.65-.18-9.3-.3-13.95-.54-7.13-.31-14.25-.69-21.37-1.21l3.14 1.4 6.93 3.13 13.86 6.26 13.84 6.31 13.8 6.38.1.05.18.12 6.95 4.59 6.99 4.53c4.67 3.01 9.26 6.12 13.72 9.42 4.47 3.29 8.88 6.67 13.2 10.17 2.69 2.16 5.35 4.38 7.96 6.65l4.56 2.63 106.55-61.23Z"
       fill="#fff"
       id="path829" />
    <path
       d="m90.78 124.78-6.61-4.87-13.3-6.93-13.46-7.09-13.43-7.14-5.25-2.8 59.34 34.3c-.21-.16-.42-.31-.63-.47l-6.66-5ZM155.3 164.64c5.03 2.44 9.98 5 14.9 7.64 4.91 2.64 9.74 5.43 14.49 8.36 3.6 2.23 7.2 4.48 10.81 6.69l4.55-8.17 6.68-12.07c4.46-8.04 9.07-16 13.81-23.88 4.74-7.88 9.59-15.7 14.53-23.47 4.53-7.12 9.14-14.19 13.94-21.15l-105.5 60.6c4 1.71 7.91 3.55 11.79 5.45ZM147.27 276.12l-3.52 5.78 105.36-60.53-.79-.42-7.38-3.94-14.76-7.88-14.72-7.95-14.36-7.85-.03.05-14.15 23.68-14.22 23.65-14.29 23.61-7.14 11.8ZM164.21 46.14l12.32 8.12 12.1 8.06 7.38 3.37 7.52 3.35c2.9 1.28 5.78 2.6 8.64 3.98l-59.25-34.25 11.29 7.37Z"
       fill="#F7941E"
       id="path831" />
    <path
       opacity=".49"
       d="m142.12 285.25 109.07-63.31-43.07-24.47-12.98-7.18-53.02 94.96Z"
       fill="url(#e)"
       id="path833" />
    <path
       opacity=".3"
       d="m142.12 285.25 109.07-63.31-43.07-24.47-12.98-7.18-53.02 94.96Z"
       fill="url(#f)"
       id="path835" />
    <path
       d="m142.12 285.25 109.07-63.31-43.07-24.47-12.98-7.18-53.02 94.96Z"
       fill="url(#g)"
       id="path837" />
    <path
       d="m142.12 285.25 109.07-63.31-43.07-24.47-12.98-7.18-53.02 94.96Z"
       fill="url(#h)"
       id="path839" />
    <path
       d="m250.14 95.33-109.07 63.31 43.07 24.47 12.98 7.18 53.02-94.96Z"
       fill="url(#i)"
       id="path841" />
    <path
       opacity=".71"
       d="M250.66 124.59s-.25 33.86-24.09 76.78c-19.29 34.73-77.74 80.94-77.74 80.94l103.89-60.12-.17-90.79-1.89-6.81Z"
       fill="url(#j)"
       id="path843" />
    <path
       d="M234.25 212.56s-2.25-.75-2.88-3.01c-.63 1.32-.91-2.02-2.26.26-20.57 34.7-80.27 72.5-80.27 72.5l103.89-60.12-3.62-.82-14.86-8.81Z"
       fill="url(#k)"
       id="path845" />
    <path
       opacity=".43"
       d="m34.91 93.74-6.82-1.76h224.45l-111.33 65.21-57.76-39.97-48.54-23.48Z"
       fill="url(#l)"
       id="path847" />
    <path
       opacity=".43"
       d="m244.72 91.38 6.82 1.76H27.09l111.33-65.21 57.77 39.97 48.53 23.48Z"
       fill="url(#m)"
       id="path849" />
    <path
       opacity=".23"
       d="M100.36 128.27s40.87 4.76 66.28-10.9c25.41-15.66 54.26-25.64 80.72-24.97 26.47.67-19.62 13.45-19.62 13.45l-86.67 52.06-40.71-29.64Z"
       fill="url(#n)"
       id="path851" />
    <path
       opacity=".23"
       d="M174.52 54.95S150 38.13 124.6 46.76c-25.4 8.62 10.38 21.96-16.09 21.59-26.47-.37-39.09 0-39.09 0l70.31-42.16 34.79 28.76Z"
       fill="url(#o)"
       id="path853" />
    <path
       opacity=".33"
       d="M26.66 100.09s1.94 18.79 8.95 28.81 22.79 19.29 28.56 45.84c5.76 26.55 12.02 51.35 31.56 67.38 19.54 16.03 32.31 38.58 32.31 38.58l-99.95-56.07-1.43-124.54Z"
       fill="url(#p)"
       id="path855" />
    <path
       d="M255.86 224.58V91.27l-116-66.85-116 66.85v133.35l116 66.85c38.55-22.48 77.548-44.305 116-66.89Zm-112.85 56.9V160.67c3.41 2.52 6.89 4.92 10.4 7.26 4.64 3.12 9.35 6.11 14.1 9.03 4.76 2.91 9.59 5.68 14.51 8.31 3.76 2 7.53 3.98 11.28 6l-13.49 23.99-13.45 24.09-13.39 24.13-6.69 12.06-3.27 5.94Zm4.26-5.36 7.14-11.8 14.28-23.61 14.22-23.65 14.15-23.69.03-.04 14.36 7.85 14.72 7.95 14.76 7.89 7.38 3.94.79.42-105.36 60.53 3.53-5.79Zm102.58-55.56-.96-.6-7.12-4.39-14.24-8.78-14.28-8.72-13.93-8.42 4.88-8.09 7.16-11.79a774.815 774.815 0 0 0 13.86-23.86c4.48-8.03 8.86-16.13 13.14-24.27 3.95-7.51 7.82-15.07 11.5-22.75v121.67h-.01Zm-14.78-100.82c-4.94 7.77-9.78 15.59-14.53 23.47-4.75 7.88-9.35 15.84-13.81 23.88l-6.68 12.07-4.55 8.17c-3.61-2.21-7.21-4.46-10.81-6.69-4.75-2.93-9.58-5.72-14.49-8.36-4.91-2.64-9.87-5.2-14.9-7.64-3.88-1.9-7.8-3.74-11.79-5.45l105.5-60.6c-4.8 6.96-9.41 14.03-13.94 21.15ZM141 31.88l4.04 3.07 5.89 4.44 11.79 8.87 11.83 8.82 11.87 8.76.09.07.19.1 7.3 3.8 7.26 3.87c4.83 2.6 9.72 5.08 14.71 7.35 4.99 2.28 10.02 4.47 15.12 6.52 4.24 1.72 8.51 3.35 12.87 4.81l-6.56-.17-13.95-.31-27.91-.62-55.81-1.02-13.95-.29-13.95-.33c-9.3-.21-18.6-.25-27.91-.13l-13.95.27c-4.65.14-9.3.23-13.96.43-6.83.25-13.67.56-20.5 1l104.37-59.96 1.12.65Zm62.52 37.16L196 65.69l-7.38-3.37-12.1-8.06-12.32-8.12-11.29-7.38 59.25 34.25c-2.85-1.37-5.73-2.69-8.64-3.97Zm-93.69 171.04c8.54 14.06 17.2 28.05 26.2 41.85L30.68 221.41c8.83-4.06 17.46-8.46 26.02-12.98 8.71-4.62 17.32-9.39 25.87-14.29 8.93 15.41 17.99 30.74 27.26 45.94ZM57.05 140.5c-8.53-14.05-17.19-28.02-26.16-41.81l105.72 60.74c-8.78 4.04-17.37 8.41-25.88 12.91-8.82 4.67-17.54 9.51-26.19 14.48-9.01-15.53-18.14-30.99-27.49-46.32Zm56.42 97.47c-8.57-15.61-17.34-31.1-26.24-46.51 8.62-5.01 17.17-10.15 25.62-15.45 8.06-5.08 16.05-10.27 23.86-15.8v121.33c-7.49-14.68-15.3-29.16-23.24-43.57ZM38.72 95.95l5.25 2.8 13.43 7.14 13.46 7.09 13.3 6.93 6.61 4.87 6.66 5c.21.16.42.31.63.47l-59.34-34.3Zm-8.86 2.46c7.59 14.89 15.51 29.58 23.56 44.2 8.64 15.74 17.49 31.36 26.46 46.9a880.272 880.272 0 0 0-25.3 15.27c-8.29 5.23-16.51 10.58-24.53 16.28l-.19-.11V98.41Zm105.43 53.35c-2.61-2.28-5.27-4.49-7.96-6.65-4.32-3.5-8.73-6.88-13.2-10.17-4.46-3.3-9.06-6.41-13.72-9.42l-6.99-4.53-6.95-4.59-.18-.12-.1-.05-13.8-6.38-13.84-6.31-13.86-6.26-6.93-3.13-3.14-1.4c7.12.52 14.25.9 21.37 1.21 4.65.23 9.3.36 13.95.54l13.95.37c9.3.19 18.6.21 27.91.08l13.95-.23 13.95-.18 55.82-.6 27.91-.41 13.95-.21 9.02-.16-106.58 61.22-4.53-2.62Z"
       fill="#333"
       id="path857" />
  </g>
  <defs
     id="defs1139">
    <linearGradient
       id="b"
       x1="143.013"
       y1="221.076"
       x2="193.304"
       y2="221.076"
       gradientUnits="userSpaceOnUse">
      <stop
         offset=".464"
         stop-color="#fff"
         id="stop861" />
      <stop
         offset=".567"
         stop-color="#FCFCFC"
         id="stop863" />
      <stop
         offset=".639"
         stop-color="#F3F3F3"
         id="stop865" />
      <stop
         offset=".701"
         stop-color="#E4E4E4"
         id="stop867" />
      <stop
         offset=".758"
         stop-color="#CECECE"
         id="stop869" />
      <stop
         offset=".811"
         stop-color="#B2B2B2"
         id="stop871" />
      <stop
         offset=".861"
         stop-color="#8F8F8F"
         id="stop873" />
      <stop
         offset=".909"
         stop-color="#666"
         id="stop875" />
      <stop
         offset=".955"
         stop-color="#373737"
         id="stop877" />
      <stop
         offset=".998"
         stop-color="#020202"
         id="stop879" />
      <stop
         offset="1"
         id="stop881" />
    </linearGradient>
    <linearGradient
       id="c"
       x1="83.75"
       y1="98.693"
       x2="83.75"
       y2="186.809"
       gradientUnits="userSpaceOnUse">
      <stop
         offset=".464"
         stop-color="#fff"
         id="stop884" />
      <stop
         offset=".56"
         stop-color="#FCFCFC"
         id="stop886" />
      <stop
         offset=".631"
         stop-color="#F3F3F3"
         id="stop888" />
      <stop
         offset=".694"
         stop-color="#E3E3E3"
         id="stop890" />
      <stop
         offset=".752"
         stop-color="#CCC"
         id="stop892" />
      <stop
         offset=".807"
         stop-color="#AFAFAF"
         id="stop894" />
      <stop
         offset=".86"
         stop-color="#8B8B8B"
         id="stop896" />
      <stop
         offset=".91"
         stop-color="#606060"
         id="stop898" />
      <stop
         offset=".958"
         stop-color="#303030"
         id="stop900" />
      <stop
         offset="1"
         id="stop902" />
    </linearGradient>
    <linearGradient
       id="d"
       x1="83.354"
       y1="281.933"
       x2="83.354"
       y2="194.15"
       gradientUnits="userSpaceOnUse">
      <stop
         offset=".464"
         stop-color="#fff"
         id="stop905" />
      <stop
         offset=".663"
         stop-color="#FDFDFD"
         id="stop907" />
      <stop
         offset=".736"
         stop-color="#F6F6F6"
         id="stop909" />
      <stop
         offset=".787"
         stop-color="#EBEBEB"
         id="stop911" />
      <stop
         offset=".828"
         stop-color="#DADADA"
         id="stop913" />
      <stop
         offset=".864"
         stop-color="#C4C4C4"
         id="stop915" />
      <stop
         offset=".895"
         stop-color="#A8A8A8"
         id="stop917" />
      <stop
         offset=".924"
         stop-color="#888"
         id="stop919" />
      <stop
         offset=".95"
         stop-color="#626262"
         id="stop921" />
      <stop
         offset=".974"
         stop-color="#373737"
         id="stop923" />
      <stop
         offset=".996"
         stop-color="#090909"
         id="stop925" />
      <stop
         offset="1"
         id="stop927" />
    </linearGradient>
    <linearGradient
       id="e"
       x1="196.728"
       y1="253.726"
       x2="168.863"
       y2="205.463"
       gradientUnits="userSpaceOnUse">
      <stop
         stop-color="#F7941E"
         id="stop930" />
      <stop
         offset=".252"
         stop-color="#F5931E"
         id="stop932" />
      <stop
         offset=".391"
         stop-color="#ED8E1D"
         id="stop934" />
      <stop
         offset=".501"
         stop-color="#DF861B"
         id="stop936" />
      <stop
         offset=".598"
         stop-color="#CB7A19"
         id="stop938" />
      <stop
         offset=".685"
         stop-color="#B26B16"
         id="stop940" />
      <stop
         offset=".765"
         stop-color="#935812"
         id="stop942" />
      <stop
         offset=".84"
         stop-color="#6E420D"
         id="stop944" />
      <stop
         offset=".91"
         stop-color="#432808"
         id="stop946" />
      <stop
         offset=".976"
         stop-color="#140C02"
         id="stop948" />
      <stop
         offset="1"
         id="stop950" />
    </linearGradient>
    <linearGradient
       id="f"
       x1="196.728"
       y1="253.726"
       x2="168.863"
       y2="205.463"
       gradientUnits="userSpaceOnUse">
      <stop
         stop-color="#FCAA20"
         id="stop953" />
      <stop
         offset=".559"
         stop-color="#FCA820"
         id="stop955" />
      <stop
         offset=".76"
         stop-color="#FBA11E"
         id="stop957" />
      <stop
         offset=".903"
         stop-color="#F9961B"
         id="stop959" />
      <stop
         offset="1"
         stop-color="#F78817"
         id="stop961" />
    </linearGradient>
    <linearGradient
       id="g"
       x1="196.728"
       y1="253.726"
       x2="168.863"
       y2="205.463"
       gradientUnits="userSpaceOnUse">
      <stop
         stop-color="#FAAD3A"
         id="stop964" />
      <stop
         offset=".523"
         stop-color="#FAAB39"
         id="stop966" />
      <stop
         offset=".712"
         stop-color="#FAA433"
         id="stop968" />
      <stop
         offset=".846"
         stop-color="#FA992A"
         id="stop970" />
      <stop
         offset=".954"
         stop-color="#F9881D"
         id="stop972" />
      <stop
         offset="1"
         stop-color="#F97E16"
         id="stop974" />
    </linearGradient>
    <linearGradient
       id="h"
       x1="196.728"
       y1="253.726"
       x2="168.863"
       y2="205.463"
       gradientUnits="userSpaceOnUse">
      <stop
         stop-color="#FBBE3F"
         id="stop977" />
      <stop
         offset=".506"
         stop-color="#FABE42"
         id="stop979" />
      <stop
         offset="1"
         stop-color="#F8A232"
         id="stop981" />
    </linearGradient>
    <linearGradient
       id="i"
       x1="195.532"
       y1="126.856"
       x2="223.397"
       y2="175.119"
       gradientUnits="userSpaceOnUse">
      <stop
         stop-color="#FCAA20"
         id="stop984" />
      <stop
         offset=".567"
         stop-color="#FBA61F"
         id="stop986" />
      <stop
         offset="1"
         stop-color="#F67C13"
         id="stop988" />
    </linearGradient>
    <linearGradient
       id="j"
       x1="174.779"
       y1="297.285"
       x2="268.529"
       y2="134.905"
       gradientUnits="userSpaceOnUse">
      <stop
         offset=".386"
         stop-color="#333"
         stop-opacity="0"
         id="stop991" />
      <stop
         offset=".663"
         stop-color="#313131"
         stop-opacity=".451"
         id="stop993" />
      <stop
         offset=".789"
         stop-color="#292929"
         stop-opacity=".657"
         id="stop995" />
      <stop
         offset=".885"
         stop-color="#1D1D1D"
         stop-opacity=".813"
         id="stop997" />
      <stop
         offset=".965"
         stop-color="#0B0B0B"
         stop-opacity=".942"
         id="stop999" />
      <stop
         offset="1"
         id="stop1001" />
    </linearGradient>
    <linearGradient
       id="k"
       x1="189.838"
       y1="241.304"
       x2="211.725"
       y2="263.19"
       gradientUnits="userSpaceOnUse">
      <stop
         stop-color="#FCAD2E"
         stop-opacity="0"
         id="stop1004" />
      <stop
         offset=".528"
         stop-color="#F99720"
         stop-opacity=".8"
         id="stop1006" />
      <stop
         offset="1"
         stop-color="#F88218"
         id="stop1008" />
    </linearGradient>
    <linearGradient
       id="l"
       x1="140.315"
       y1="157.193"
       x2="140.315"
       y2="91.984"
       gradientUnits="userSpaceOnUse">
      <stop
         offset=".774"
         stop-color="#fff"
         id="stop1011" />
      <stop
         offset=".858"
         stop-color="#FDFDFD"
         id="stop1013" />
      <stop
         offset=".888"
         stop-color="#F6F6F6"
         id="stop1015" />
      <stop
         offset=".91"
         stop-color="#EBEBEB"
         id="stop1017" />
      <stop
         offset=".928"
         stop-color="#DADADA"
         id="stop1019" />
      <stop
         offset=".943"
         stop-color="#C4C4C4"
         id="stop1021" />
      <stop
         offset=".956"
         stop-color="#A8A8A8"
         id="stop1023" />
      <stop
         offset=".968"
         stop-color="#888"
         id="stop1025" />
      <stop
         offset=".979"
         stop-color="#626262"
         id="stop1027" />
      <stop
         offset=".989"
         stop-color="#373737"
         id="stop1029" />
      <stop
         offset=".998"
         stop-color="#090909"
         id="stop1031" />
      <stop
         offset="1"
         id="stop1033" />
    </linearGradient>
    <linearGradient
       id="m"
       x1="139.316"
       y1="27.926"
       x2="139.316"
       y2="93.135"
       gradientUnits="userSpaceOnUse">
      <stop
         offset=".774"
         stop-color="#fff"
         id="stop1036" />
      <stop
         offset=".858"
         stop-color="#FDFDFD"
         id="stop1038" />
      <stop
         offset=".888"
         stop-color="#F6F6F6"
         id="stop1040" />
      <stop
         offset=".91"
         stop-color="#EBEBEB"
         id="stop1042" />
      <stop
         offset=".928"
         stop-color="#DADADA"
         id="stop1044" />
      <stop
         offset=".943"
         stop-color="#C4C4C4"
         id="stop1046" />
      <stop
         offset=".956"
         stop-color="#A8A8A8"
         id="stop1048" />
      <stop
         offset=".968"
         stop-color="#888"
         id="stop1050" />
      <stop
         offset=".979"
         stop-color="#626262"
         id="stop1052" />
      <stop
         offset=".989"
         stop-color="#373737"
         id="stop1054" />
      <stop
         offset=".998"
         stop-color="#090909"
         id="stop1056" />
      <stop
         offset="1"
         id="stop1058" />
    </linearGradient>
    <linearGradient
       id="n"
       x1="204.968"
       y1="64.672"
       x2="148.62"
       y2="162.27"
       gradientUnits="userSpaceOnUse">
      <stop
         stop-color="#fff"
         id="stop1061" />
      <stop
         offset=".373"
         stop-color="#FDFDFD"
         id="stop1063" />
      <stop
         offset=".507"
         stop-color="#F6F6F6"
         id="stop1065" />
      <stop
         offset=".603"
         stop-color="#EBEBEB"
         id="stop1067" />
      <stop
         offset=".68"
         stop-color="#DADADA"
         id="stop1069" />
      <stop
         offset=".746"
         stop-color="#C4C4C4"
         id="stop1071" />
      <stop
         offset=".805"
         stop-color="#A8A8A8"
         id="stop1073" />
      <stop
         offset=".858"
         stop-color="#888"
         id="stop1075" />
      <stop
         offset=".907"
         stop-color="#626262"
         id="stop1077" />
      <stop
         offset=".952"
         stop-color="#373737"
         id="stop1079" />
      <stop
         offset=".993"
         stop-color="#090909"
         id="stop1081" />
      <stop
         offset="1"
         id="stop1083" />
    </linearGradient>
    <linearGradient
       id="o"
       x1="105.925"
       y1="89.43"
       x2="141.757"
       y2="27.367"
       gradientUnits="userSpaceOnUse">
      <stop
         stop-color="#fff"
         id="stop1086" />
      <stop
         offset=".373"
         stop-color="#FDFDFD"
         id="stop1088" />
      <stop
         offset=".507"
         stop-color="#F6F6F6"
         id="stop1090" />
      <stop
         offset=".603"
         stop-color="#EBEBEB"
         id="stop1092" />
      <stop
         offset=".68"
         stop-color="#DADADA"
         id="stop1094" />
      <stop
         offset=".746"
         stop-color="#C4C4C4"
         id="stop1096" />
      <stop
         offset=".805"
         stop-color="#A8A8A8"
         id="stop1098" />
      <stop
         offset=".858"
         stop-color="#888"
         id="stop1100" />
      <stop
         offset=".907"
         stop-color="#626262"
         id="stop1102" />
      <stop
         offset=".952"
         stop-color="#373737"
         id="stop1104" />
      <stop
         offset=".993"
         stop-color="#090909"
         id="stop1106" />
      <stop
         offset="1"
         id="stop1108" />
    </linearGradient>
    <linearGradient
       id="p"
       x1="-4.118"
       y1="130.863"
       x2="136.877"
       y2="271.858"
       gradientUnits="userSpaceOnUse">
      <stop
         stop-color="#fff"
         id="stop1111" />
      <stop
         offset=".373"
         stop-color="#FDFDFD"
         id="stop1113" />
      <stop
         offset=".507"
         stop-color="#F6F6F6"
         id="stop1115" />
      <stop
         offset=".603"
         stop-color="#EBEBEB"
         id="stop1117" />
      <stop
         offset=".68"
         stop-color="#DADADA"
         id="stop1119" />
      <stop
         offset=".746"
         stop-color="#C4C4C4"
         id="stop1121" />
      <stop
         offset=".805"
         stop-color="#A8A8A8"
         id="stop1123" />
      <stop
         offset=".858"
         stop-color="#888"
         id="stop1125" />
      <stop
         offset=".907"
         stop-color="#626262"
         id="stop1127" />
      <stop
         offset=".952"
         stop-color="#373737"
         id="stop1129" />
      <stop
         offset=".993"
         stop-color="#090909"
         id="stop1131" />
      <stop
         offset="1"
         id="stop1133" />
    </linearGradient>
    <clipPath
       id="a">
      <path
         fill="#fff"
         d="M0 0h807.466v314.62H0z"
         id="path1136" />
    </clipPath>
  </defs>
</svg>
