<svg width="200" height="200" xmlns="http://www.w3.org/2000/svg">
  <g fill="none" fill-rule="evenodd">
    <path d="M80.198 2h39.604c27.19 0 37.051 2.831 46.992 8.148 9.94 5.316 17.742 13.117 23.058 23.058C195.17 43.146 198 53.007 198 80.198v39.604c0 27.19-2.831 37.051-8.148 46.992-5.316 9.94-13.117 17.742-23.058 23.058-9.94 5.317-19.801 8.148-46.992 8.148H80.198c-27.19 0-37.051-2.831-46.992-8.148-9.94-5.316-17.742-13.117-23.058-23.058C4.83 156.854 2 146.993 2 119.802V80.198c0-27.19 2.831-37.051 8.148-46.992 5.316-9.94 13.117-17.742 23.058-23.058C43.146 4.83 53.007 2 80.198 2z" fill="#FFF"/>
    <g fill-rule="nonzero">
      <path fill="#333" d="M35.595 29l48.224 71.533L34 171.758h35.475l31.878-49.511 30.085 49.511h34.364L68.067 29z"/>
      <path fill="#F7941E" d="M103.498 69.172l17.369 23.419 43.252-63.503h-34.672z"/>
    </g>
  </g>
</svg>
